<svg width="13" height="12" viewBox="0 0 13 12" fill="none" xmlns="http://www.w3.org/2000/svg">
<path d="M6.0194 0.674641C6.15795 0.191875 6.84205 0.191876 6.9806 0.674641L7.93523 4.00102C7.99853 4.22158 8.20383 4.37075 8.43316 4.36279L11.8917 4.24279C12.3937 4.22537 12.6051 4.87599 12.1888 5.15694L9.32018 7.09275C9.12997 7.22111 9.05155 7.46247 9.12999 7.67811L10.3129 10.9303C10.4845 11.4023 9.9311 11.8044 9.53525 11.4953L6.80774 9.36532C6.62689 9.22409 6.37311 9.22409 6.19226 9.36532L3.46475 11.4953C3.0689 11.8044 2.51545 11.4023 2.68713 10.9303L3.87001 7.67811C3.94845 7.46247 3.87003 7.22111 3.67982 7.09275L0.811241 5.15694C0.394917 4.87599 0.606317 4.22537 1.10827 4.24279L4.56683 4.36279C4.79617 4.37075 5.00147 4.22158 5.06477 4.00102L6.0194 0.674641Z" fill="#FFD260"/>
</svg>
